<svg xmlns="http://www.w3.org/2000/svg" version="1.1" xmlns:xlink="http://www.w3.org/1999/xlink" xmlns:svgjs="http://svgjs.dev/svgjs" width="2000" height="1999" viewBox="0 0 2000 1999"><g transform="matrix(1,0,0,1,-0.431486880466764,-0.4312711370263287)"><svg viewBox="0 0 343 343" data-background-color="#ffffff" preserveAspectRatio="xMidYMid meet" height="1999" width="2000" xmlns="http://www.w3.org/2000/svg" xmlns:xlink="http://www.w3.org/1999/xlink"><g id="tight-bounds" transform="matrix(1,0,0,1,0.0740000000000407,0.07400000000001228)"><svg viewBox="0 0 342.85155851775386 342.85155851775386" height="342.85155851775386" width="342.85155851775386"><g><svg></svg></g><g><svg viewBox="0 0 342.85155851775386 342.85155851775386" height="342.85155851775386" width="342.85155851775386"><g><path d="M0 171.426c0-94.676 76.75-171.426 171.426-171.426 94.676 0 171.426 76.75 171.426 171.426 0 94.676-76.75 171.426-171.426 171.426-94.676 0-171.426-76.75-171.426-171.426zM171.426 330.273c87.729 0 158.848-71.118 158.847-158.847 0-87.729-71.118-158.848-158.847-158.848-87.729 0-158.848 71.118-158.848 158.848 0 87.729 71.118 158.848 158.848 158.847z" data-fill-palette-color="tertiary" fill="#ee3e38" stroke="transparent"></path><ellipse rx="164.56874808852186" ry="164.56874808852186" cx="171.42577925887693" cy="171.42577925887693" fill="#ee3e38" stroke="transparent" stroke-width="0" fill-opacity="1" data-fill-palette-color="tertiary"></ellipse></g><g transform="matrix(1,0,0,1,64.84655864529837,101.68713593096199)"><svg viewBox="0 0 213.1584412271571 139.4772866558299" height="139.4772866558299" width="213.1584412271571"><g><svg viewBox="0 0 213.1584412271571 139.4772866558299" height="139.4772866558299" width="213.1584412271571"><g><svg viewBox="0 0 213.1584412271571 139.4772866558299" height="139.4772866558299" width="213.1584412271571"><g><svg viewBox="0 0 213.1584412271571 139.4772866558299" height="139.4772866558299" width="213.1584412271571"><g id="textblocktransform"><svg viewBox="0 0 213.1584412271571 139.4772866558299" height="139.4772866558299" width="213.1584412271571" id="textblock"><g><svg viewBox="0 0 213.1584412271571 139.4772866558299" height="139.4772866558299" width="213.1584412271571"><g transform="matrix(1,0,0,1,0,0)"><svg width="213.1584412271571" viewBox="1.4900000095367432 -38.11000061035156 59.39999771118164 38.869998931884766" height="139.4772866558299" data-palette-color="#ffffff"><path d="M29.64-37.01L29.64-29.35 11.21-7.25 21.66-7.25 21.66-12.99 29.59-12.99 29.59 0 1.49 0 1.49-7.64 19.48-29.76 9.5-29.76 9.5-23.9 1.54-23.9 1.54-37.01 29.64-37.01ZM52.05-24.44L52.05-26.59Q51.93-27.44 51.45-28.2 50.97-28.96 50.23-29.5 49.48-30.05 48.54-30.37 47.6-30.69 46.58-30.69L46.58-30.69Q45.65-30.69 44.85-30.49 44.04-30.3 43.44-29.9 42.84-29.49 42.49-28.86 42.14-28.22 42.14-27.34L42.14-27.34Q42.14-26.25 42.61-25.6 43.09-24.95 43.83-24.54 44.58-24.12 45.48-23.88 46.38-23.63 47.24-23.34L47.24-23.34 53.95-21.09Q55.34-20.61 56.56-19.75 57.79-18.9 58.68-17.68 59.57-16.46 60.08-14.87 60.59-13.28 60.59-11.3L60.59-11.3Q60.59-8.62 59.6-6.4 58.62-4.17 56.83-2.59 55.05-1 52.56-0.12 50.07 0.76 47.04 0.76L47.04 0.76Q44.92 0.76 43.03 0.28 41.14-0.2 39.57-1.1 38.01-2 36.84-3.26 35.67-4.52 35.01-6.1L35.01-6.1 32.49-6.1 32.49-13.45 41.33-13.45 41.33-11.94Q41.33-10.84 41.68-9.91 42.04-8.98 42.75-8.3 43.45-7.62 44.53-7.24 45.6-6.86 47.04-6.86L47.04-6.86Q49.24-6.86 50.39-7.87 51.54-8.89 51.54-10.69L51.54-10.69Q51.54-11.62 51.13-12.24 50.73-12.87 50.1-13.29 49.46-13.72 48.68-14.01 47.9-14.31 47.14-14.55L47.14-14.55 41.55-16.36Q39.96-16.85 38.49-17.72 37.01-18.6 35.87-19.92 34.74-21.24 34.07-23.01 33.4-24.78 33.4-27.05L33.4-27.05Q33.4-29.69 34.37-31.75 35.35-33.81 37.11-35.23 38.86-36.65 41.28-37.38 43.7-38.11 46.58-38.11L46.58-38.11Q48.85-38.11 50.78-37.59 52.71-37.06 54.23-36.18 55.76-35.3 56.82-34.17 57.88-33.03 58.44-31.81L58.44-31.81 60.89-31.81 60.89-24.44 52.05-24.44Z" opacity="1" transform="matrix(1,0,0,1,0,0)" fill="#ffffff" class="wordmark-text-0" data-fill-palette-color="quaternary" id="text-0"></path></svg></g></svg></g></svg></g></svg></g><g></g></svg></g></svg></g></svg></g></svg></g><defs></defs></svg><rect width="342.85155851775386" height="342.85155851775386" fill="none" stroke="none" visibility="hidden"></rect></g></svg></g></svg>